<svg xmlns="http://www.w3.org/2000/svg" xmlns:xlink="http://www.w3.org/1999/xlink" width="1080" zoomAndPan="magnify" viewBox="0 0 810 809.999993" height="1080" preserveAspectRatio="xMidYMid meet" version="1.0"><defs><clipPath id="0f79ed770a"><path d="M 37.375 227 L 772.375 227 L 772.375 595.617188 L 37.375 595.617188 Z M 37.375 227 " clip-rule="nonzero"/></clipPath><clipPath id="a2aa4fe1c6"><path d="M 35.550781 607.886719 L 48.300781 607.886719 L 48.300781 634.136719 L 35.550781 634.136719 Z M 35.550781 607.886719 " clip-rule="nonzero"/></clipPath><clipPath id="63ab7493d9"><path d="M 762.121094 607.863281 L 774.871094 607.863281 L 774.871094 634.113281 L 762.121094 634.113281 Z M 762.121094 607.863281 " clip-rule="nonzero"/></clipPath></defs><g clip-path="url(#0f79ed770a)"><path fill="#000000" d="M 772.289062 595.511719 L 765.535156 595.511719 C 765.535156 396.410156 603.722656 234.421875 404.828125 234.421875 C 205.933594 234.421875 44.128906 396.410156 44.128906 595.511719 L 37.375 595.511719 C 37.378906 590.257812 37.496094 585.007812 37.722656 579.761719 C 37.953125 574.511719 38.292969 569.273438 38.742188 564.039062 C 39.195312 558.804688 39.761719 553.585938 40.433594 548.375 C 41.109375 543.167969 41.898438 537.976562 42.796875 532.800781 C 43.691406 527.625 44.703125 522.46875 45.820312 517.339844 C 46.9375 512.207031 48.164062 507.101562 49.5 502.019531 C 50.839844 496.941406 52.28125 491.894531 53.835938 486.875 C 55.386719 481.859375 57.046875 476.875 58.8125 471.929688 C 60.578125 466.984375 62.449219 462.078125 64.425781 457.210938 C 66.402344 452.34375 68.480469 447.523438 70.660156 442.746094 C 72.84375 437.96875 75.128906 433.242188 77.511719 428.5625 C 79.894531 423.882812 82.378906 419.257812 84.960938 414.683594 C 87.542969 410.109375 90.222656 405.597656 92.996094 401.136719 C 95.773438 396.679688 98.640625 392.285156 101.605469 387.949219 C 104.566406 383.613281 107.621094 379.34375 110.769531 375.140625 C 113.914062 370.9375 117.148438 366.800781 120.472656 362.738281 C 123.796875 358.671875 127.203125 354.679688 130.695312 350.761719 C 134.191406 346.839844 137.765625 343 141.425781 339.234375 C 145.082031 335.46875 148.820312 331.78125 152.636719 328.175781 C 156.453125 324.570312 160.34375 321.046875 164.308594 317.609375 C 168.273438 314.171875 172.3125 310.820312 176.421875 307.554688 C 180.535156 304.289062 184.710938 301.113281 188.957031 298.023438 C 193.203125 294.9375 197.511719 291.945312 201.886719 289.042969 C 206.261719 286.140625 210.695312 283.335938 215.1875 280.621094 C 219.679688 277.910156 224.230469 275.296875 228.835938 272.78125 C 233.441406 270.265625 238.101562 267.847656 242.808594 265.53125 C 247.519531 263.214844 252.273438 261 257.078125 258.886719 C 261.882812 256.773438 266.730469 254.761719 271.621094 252.859375 C 276.507812 250.953125 281.4375 249.152344 286.402344 247.460938 C 291.371094 245.765625 296.371094 244.179688 301.40625 242.699219 C 306.441406 241.21875 311.503906 239.847656 316.597656 238.585938 C 321.691406 237.324219 326.808594 236.171875 331.953125 235.128906 C 337.09375 234.085938 342.257812 233.152344 347.441406 232.332031 C 352.621094 231.511719 357.820312 230.800781 363.035156 230.203125 C 368.246094 229.601562 373.46875 229.117188 378.703125 228.742188 C 383.9375 228.367188 389.175781 228.105469 394.421875 227.953125 C 399.667969 227.804688 404.914062 227.765625 410.160156 227.839844 C 415.40625 227.914062 420.648438 228.101562 425.886719 228.402344 C 431.125 228.703125 436.355469 229.113281 441.574219 229.636719 C 446.796875 230.160156 452.003906 230.796875 457.199219 231.542969 C 462.390625 232.289062 467.566406 233.148438 472.722656 234.117188 C 477.882812 235.085938 483.015625 236.164062 488.125 237.355469 C 493.238281 238.542969 498.320312 239.839844 503.375 241.246094 C 508.429688 242.65625 513.453125 244.167969 518.445312 245.792969 C 523.433594 247.414062 528.390625 249.140625 533.304688 250.976562 C 538.222656 252.8125 543.097656 254.75 547.929688 256.792969 C 552.765625 258.835938 557.550781 260.984375 562.292969 263.234375 C 567.035156 265.480469 571.726562 267.832031 576.371094 270.28125 C 581.011719 272.730469 585.597656 275.28125 590.128906 277.925781 C 594.664062 280.574219 599.136719 283.316406 603.550781 286.152344 C 607.964844 288.992188 612.316406 291.925781 616.609375 294.949219 C 620.898438 297.976562 625.121094 301.089844 629.277344 304.296875 C 633.433594 307.503906 637.519531 310.796875 641.535156 314.179688 C 645.550781 317.558594 649.492188 321.023438 653.359375 324.574219 C 657.226562 328.125 661.015625 331.757812 664.726562 335.46875 C 668.4375 339.183594 672.070312 342.972656 675.617188 346.839844 C 679.167969 350.710938 682.632812 354.652344 686.015625 358.671875 C 689.394531 362.6875 692.6875 366.773438 695.894531 370.933594 C 699.101562 375.089844 702.214844 379.316406 705.242188 383.609375 C 708.265625 387.898438 711.199219 392.253906 714.039062 396.671875 C 716.875 401.089844 719.621094 405.566406 722.265625 410.101562 C 724.914062 414.636719 727.464844 419.226562 729.914062 423.871094 C 732.367188 428.515625 734.71875 433.210938 736.96875 437.953125 C 739.21875 442.699219 741.367188 447.492188 743.410156 452.328125 C 748.1875 463.625 752.382812 475.128906 756 486.847656 C 759.621094 498.566406 762.640625 510.4375 765.066406 522.460938 C 767.492188 534.484375 769.304688 546.597656 770.511719 558.804688 C 771.71875 571.011719 772.3125 583.246094 772.289062 595.511719 Z M 772.289062 595.511719 " fill-opacity="1" fill-rule="nonzero"/></g><g clip-path="url(#a2aa4fe1c6)"><path fill="#000000" d="M 47.921875 613.429688 L 42.605469 608.246094 C 42.238281 607.886719 41.628906 607.886719 41.261719 608.246094 L 35.933594 613.429688 C 35.5625 613.789062 35.5625 614.382812 35.933594 614.742188 C 36.300781 615.101562 36.90625 615.101562 37.277344 614.742188 L 40.976562 611.132812 L 40.976562 633.207031 C 40.976562 633.71875 41.402344 634.136719 41.925781 634.136719 C 42.449219 634.136719 42.878906 633.71875 42.878906 633.207031 L 42.878906 611.144531 L 46.578125 614.753906 C 46.769531 614.9375 47.007812 615.019531 47.257812 615.019531 C 47.503906 615.019531 47.742188 614.925781 47.933594 614.753906 C 48.289062 614.382812 48.289062 613.789062 47.921875 613.429688 Z M 47.921875 613.429688 " fill-opacity="1" fill-rule="nonzero"/></g><g clip-path="url(#63ab7493d9)"><path fill="#000000" d="M 762.5 628.566406 L 767.816406 633.753906 C 768.1875 634.113281 768.792969 634.113281 769.160156 633.753906 L 774.492188 628.566406 C 774.859375 628.207031 774.859375 627.617188 774.492188 627.257812 C 774.121094 626.898438 773.515625 626.898438 773.144531 627.257812 L 769.449219 630.863281 L 769.449219 608.789062 C 769.449219 608.28125 769.019531 607.863281 768.496094 607.863281 C 767.972656 607.863281 767.542969 608.28125 767.542969 608.789062 L 767.542969 630.851562 L 763.84375 627.246094 C 763.65625 627.058594 763.417969 626.976562 763.167969 626.976562 C 762.917969 626.976562 762.679688 627.070312 762.488281 627.246094 C 762.132812 627.617188 762.132812 628.207031 762.5 628.566406 Z M 762.5 628.566406 " fill-opacity="1" fill-rule="nonzero"/></g><path stroke-linecap="butt" transform="matrix(0.756447, 0.000000000000002627, -0.000000000000002605, 0.75, 29.501756, 634.138476)" fill="none" stroke-linejoin="miter" d="M -0.00232077 0.997657 L 32.731923 0.997657 " stroke="#000000" stroke-width="2" stroke-opacity="1" stroke-miterlimit="4"/><path stroke-linecap="butt" transform="matrix(0.756447, 0.000000000000002627, -0.000000000000002605, 0.75, 756.374845, 607.861813)" fill="none" stroke-linejoin="miter" d="M 0.000204313 1.001957 L 32.734448 1.001957 " stroke="#000000" stroke-width="2" stroke-opacity="1" stroke-miterlimit="4"/></svg>